<?xml version="1.0" standalone="no"?>
<!DOCTYPE svg PUBLIC "-//W3C//DTD SVG 20010904//EN"
 "http://www.w3.org/TR/2001/REC-SVG-20010904/DTD/svg10.dtd">
<svg version="1.0" xmlns="http://www.w3.org/2000/svg"
 width="259.000000pt" height="247.000000pt" viewBox="0 0 259.000000 247.000000"
 preserveAspectRatio="xMidYMid meet">

<g transform="translate(0.000000,247.000000) scale(0.100000,-0.100000)"
fill="#000000" stroke="none">
<path d="M1595 2270 c18 -7 18 -8 -8 -15 -18 -5 -24 -10 -17 -15 15 -10 15
-21 -2 -31 -8 -5 -17 -1 -25 14 -11 20 -12 19 -13 -20 0 -35 3 -41 16 -36 13
5 15 0 12 -22 -2 -18 2 -30 11 -33 8 -3 11 0 7 7 -4 6 -1 11 6 11 9 0 9 3 -2
10 -8 5 -11 10 -6 10 18 0 45 -32 39 -48 -5 -11 -2 -14 10 -9 10 4 16 2 14 -5
-1 -6 4 -13 12 -16 9 -3 11 0 7 9 -4 8 1 5 11 -7 10 -11 41 -38 68 -60 28 -21
53 -42 56 -47 3 -4 2 -35 -2 -68 -4 -33 -7 -374 -8 -757 l0 -697 -28 -21 c-50
-36 -209 -103 -300 -126 -126 -31 -289 -31 -403 0 -88 24 -267 104 -309 139
l-24 20 -5 449 c-4 431 -8 484 -34 468 -6 -4 -15 0 -20 7 -7 11 -11 11 -15 2
-7 -18 -26 -16 -20 2 4 8 2 17 -3 20 -4 3 -10 -1 -13 -7 -3 -10 -7 -10 -20 1
-22 17 -22 7 0 -26 17 -26 17 -26 -4 -15 -16 9 -23 9 -26 -1 -3 -6 -6 -1 -7
13 -2 24 -3 23 -10 -5 -7 -28 -8 -29 -10 -5 -1 23 -2 23 -10 5 -5 -11 -9 -241
-9 -510 l-1 -490 113 -73 c319 -204 645 -244 1003 -122 108 36 270 122 331
174 l28 24 1 839 c1 461 0 846 -3 855 -4 17 -88 71 -110 71 -7 0 -13 5 -13 12
0 12 -97 70 -174 104 -58 25 -62 26 -46 6 8 -10 9 -15 2 -15 -6 0 -16 9 -22
20 -6 11 -18 20 -28 19 -14 0 -14 -2 3 -9z m15 -30 c0 -5 -4 -10 -10 -10 -5 0
-10 5 -10 10 0 6 5 10 10 10 6 0 10 -4 10 -10z m-20 -70 c0 -5 -4 -10 -10 -10
-5 0 -10 5 -10 10 0 6 5 10 10 10 6 0 10 -4 10 -10z"/>
<path d="M1590 2114 c0 -8 5 -12 10 -9 6 4 8 11 5 16 -9 14 -15 11 -15 -7z"/>
<path d="M769 2033 c-13 -16 -12 -17 4 -4 9 7 17 15 17 17 0 8 -8 3 -21 -13z"/>
<path d="M2072 1850 l1 -135 36 -61 c20 -33 43 -79 50 -102 l14 -42 88 0 88 0
-20 58 c-42 121 -135 281 -217 372 l-41 45 1 -135z"/>
<path d="M1513 1953 c15 -2 37 -2 50 0 12 2 0 4 -28 4 -27 0 -38 -2 -22 -4z"/>
<path d="M1500 1930 c8 -5 20 -10 25 -10 6 0 3 5 -5 10 -8 5 -19 10 -25 10 -5
0 -3 -5 5 -10z"/>
<path d="M1490 1650 l0 -270 -240 0 -240 0 -1 173 c-1 122 -4 154 -9 111 -7
-66 -16 -88 -31 -78 -6 4 -6 11 2 20 14 17 -5 26 -63 28 -39 1 -42 -1 -51 -33
-6 -26 -11 -31 -18 -20 -7 11 -9 9 -9 -8 0 -12 -4 -23 -9 -25 -8 -3 -21 -1023
-14 -1059 5 -20 98 -33 162 -23 l41 7 0 315 0 314 31 -6 c17 -3 125 -6 240 -6
l209 0 0 -310 0 -310 105 0 105 0 0 353 c0 195 -3 489 -7 655 -6 280 -7 301
-25 305 -10 3 -18 14 -18 25 0 31 -11 52 -26 52 -8 0 -14 7 -14 15 0 8 -3 14
-7 13 -5 0 -17 3 -27 7 -13 6 -21 4 -24 -3 -2 -7 -10 -19 -18 -26 -8 -8 -14
-23 -15 -33 0 -10 -5 -27 -10 -38 -7 -15 -8 -10 -5 20 4 46 15 76 30 88 7 6 4
7 -6 3 -10 -3 -18 -1 -18 4 0 6 -4 10 -10 10 -6 0 -10 -97 -10 -270z m98 181
c3 -8 -1 -12 -9 -9 -7 2 -15 10 -17 17 -3 8 1 12 9 9 7 -2 15 -10 17 -17z
m-641 -237 c-3 -3 -12 -4 -19 -1 -8 3 -5 6 6 6 11 1 17 -2 13 -5z"/>
<path d="M267 1743 c4 -10 2 -14 -4 -10 -5 4 -15 -5 -21 -18 -6 -13 -7 -27 -3
-30 5 -2 11 5 14 17 4 12 8 20 11 17 11 -11 -7 -46 -27 -55 -12 -6 -17 -9 -10
-8 7 2 10 -3 7 -11 -3 -8 -13 -11 -21 -8 -11 4 -14 2 -9 -5 4 -6 -2 -24 -13
-39 -11 -16 -23 -40 -27 -55 l-6 -28 70 0 70 0 7 40 c4 27 11 38 18 33 7 -4 7
-1 -1 9 -10 13 -10 18 -1 24 8 5 9 3 4 -6 -5 -9 -4 -11 3 -6 9 5 8 12 -1 28
-10 16 -9 22 1 25 10 4 10 8 0 21 -11 13 -11 14 0 8 10 -6 13 -3 10 10 -2 11
-10 18 -17 16 -7 -1 -11 3 -9 10 3 7 -6 18 -20 25 -31 17 -33 16 -25 -4z m36
-40 c5 -26 2 -42 -7 -32 -9 11 -15 59 -7 59 5 0 11 -12 14 -27z"/>
<path d="M352 1700 c0 -19 2 -27 5 -17 2 9 2 25 0 35 -3 9 -5 1 -5 -18z"/>
<path d="M908 1683 c6 -2 18 -2 25 0 6 3 1 5 -13 5 -14 0 -19 -2 -12 -5z"/>
<path d="M1185 1655 c-54 -53 -15 -135 65 -135 33 0 48 6 71 29 37 38 37 66
-2 102 -41 38 -99 40 -134 4z"/>
<path d="M945 1650 c3 -5 8 -10 11 -10 2 0 4 5 4 10 0 6 -5 10 -11 10 -5 0 -7
-4 -4 -10z"/>
<path d="M2147 1433 c-63 -4 -74 -15 -63 -58 l6 -25 143 0 143 0 -5 43 -6 42
-80 1 c-44 0 -106 -1 -138 -3z"/>
<path d="M2128 1272 c-39 -3 -54 -24 -42 -56 5 -14 26 -16 150 -16 121 0 144
2 145 15 5 65 14 60 -106 60 -61 0 -127 -1 -147 -3z"/>
<path d="M2218 1123 c-116 -3 -127 -5 -133 -23 -4 -11 -3 -29 0 -40 6 -19 15
-20 144 -20 l139 0 6 31 c9 49 7 59 -11 57 -10 -1 -75 -4 -145 -5z"/>
<path d="M118 1080 l4 -40 144 0 144 0 0 40 0 40 -148 0 -148 0 4 -40z"/>
<path d="M231 962 l-83 -3 6 -31 c19 -93 124 -294 211 -401 l50 -62 6 115 5
115 -43 91 c-24 49 -49 110 -56 135 l-12 44 -84 -3z"/>
<path d="M2164 920 c-9 -25 -34 -78 -55 -119 -39 -74 -39 -75 -39 -190 0 -64
4 -121 8 -128 5 -8 22 6 52 44 25 31 47 62 50 67 3 6 21 36 41 66 36 56 112
223 123 272 l6 27 -85 3 -84 3 -17 -45z"/>
<path d="M1197 909 c-21 -12 -47 -61 -47 -89 0 -12 14 -35 30 -52 28 -28 36
-30 78 -25 87 10 121 89 63 148 -23 22 -39 29 -68 29 -21 0 -46 -5 -56 -11z"/>
</g>
</svg>
